# xmcd
#
# Track frame offsets:
#	150
#	32747
#	51732
#	59144
#	71894
#	91538
#	102789
#	118960
#	132077
#	142729
#	160922
#	179736
#	183513
#	195863
#	208929
#	224353
#	245359
#	267074
#	277840
#	284565
#	305928
#	322132
#	335482
#
# Disc length: 4659 seconds
#
# Revision: 0
# Processed by: cddbd v1.5.2PL0 Copyright (c) Steve Scherf et al.
# Submitted via: EZCDAudioConverter 2.1.7.1
#
DISCID=73123117
DTITLE=V/A - Rogue's Gallery 1/2
DYEAR=1900
DGENRE=
TTITLE0=Baby Gramps - Cape Cod Girls
TTITLE1=Richard Thompson - Mingulay Boat Song
TTITLE2=John C. Reilly - My Son John
TTITLE3=Nick Cave - Fire Down Below
TTITLE4=Loudon Wainwright III - Turkish Revelry
TTITLE5=Three Pruned Men - Bully In The Alley
TTITLE6=Bryan Ferry - The Cruel Ship's Captain
TTITLE7=Robin Holcomb - Dead Horse
TTITLE8=Bill Frisell - Spanish Ladies
TTITLE9=Joseph Arthur - Coast Of High Barbary
TTITLE10=Mark Anthony Thompson - Haul Away Joe
TTITLE11=David Thomas - Dan Dan
TTITLE12=Sting - Blood Red Roses
TTITLE13=Teddy Thompson - Sally Brown
TTITLE14=Rufus Wainwright and Kate McGarrigle - Lowlands Away
TTITLE15=Gavin Friday - Baltimore Whores
TTITLE16=Eliza Carthy - Rolling Sea
TTITLE17=Martin Carthy and The UK Group - The Mermaid
TTITLE18=Bob Neuwirth - Haul On The Bowline
TTITLE19=Bono - A Dying Sailor To His Shipmates
TTITLE20=Lucinda Williams - Bonnie Portmore
TTITLE21=Richard Greene and Jack Shit - Shenandoah
TTITLE22=Mary Margaret O' Hara - The Cry Of Man
EXTD=
EXTT0=
EXTT1=
EXTT2=
EXTT3=
EXTT4=
EXTT5=
EXTT6=
EXTT7=
EXTT8=
EXTT9=
EXTT10=
EXTT11=
EXTT12=
EXTT13=
EXTT14=
EXTT15=
EXTT16=
EXTT17=
EXTT18=
EXTT19=
EXTT20=
EXTT21=
EXTT22=
PLAYORDER=
